<svg width="0" height="0" class="hidden">
  <symbol fill="none" xmlns="http://www.w3.org/2000/svg" viewBox="0 0 24 24" id="bell">
    <path d="M5 19V9C5 5.134 8.134 2 12 2C15.866 2 19 5.134 19 9V19M2 19H22" stroke="#F4F4F4" stroke-width="2" stroke-linecap="round" stroke-linejoin="round"></path>
    <path d="M12 22C13.3807 22 14.5 20.8807 14.5 19.5V19H9.5V19.5C9.5 20.8807 10.6193 22 12 22Z" stroke="#F4F4F4" stroke-width="2" stroke-linecap="round" stroke-linejoin="round"></path>
  </symbol>
  <symbol fill="none" xmlns="http://www.w3.org/2000/svg" viewBox="0 0 24 24" id="search">
    <path d="M18.6541 17.5951L21.5836 20.5231C21.7202 20.6646 21.7958 20.854 21.7941 21.0507C21.7924 21.2473 21.7135 21.4354 21.5745 21.5745C21.4354 21.7135 21.2473 21.7924 21.0507 21.7941C20.854 21.7958 20.6646 21.7202 20.5231 21.5836L17.5936 18.6541C15.6793 20.2943 13.204 21.1292 10.6873 20.9838C8.17065 20.8383 5.80812 19.7237 4.0955 17.8739C2.38287 16.024 1.45329 13.5828 1.50181 11.0624C1.55032 8.54193 2.57317 6.13825 4.35571 4.35571C6.13825 2.57317 8.54193 1.55032 11.0624 1.50181C13.5828 1.45329 16.024 2.38287 17.8739 4.0955C19.7237 5.80812 20.8383 8.17065 20.9838 10.6873C21.1292 13.204 20.2943 15.6793 18.6541 17.5936V17.5951ZM11.2501 19.5001C13.4382 19.5001 15.5366 18.6309 17.0838 17.0838C18.6309 15.5366 19.5001 13.4382 19.5001 11.2501C19.5001 9.06209 18.6309 6.96367 17.0838 5.41649C15.5366 3.86932 13.4382 3.00012 11.2501 3.00012C9.06209 3.00012 6.96367 3.86932 5.41649 5.41649C3.86932 6.96367 3.00012 9.06209 3.00012 11.2501C3.00012 13.4382 3.86932 15.5366 5.41649 17.0838C6.96367 18.6309 9.06209 19.5001 11.2501 19.5001Z" fill="#F4F4F4" stroke="white"></path>
  </symbol>
</svg>